<?xml version="1.0" encoding="utf-8"?>
<svg viewBox="0 0 500 500" xmlns="http://www.w3.org/2000/svg">
  <g transform="matrix(1, 0, 0, 1, 42.449356, 22.415798)">
    <g xmlns="http://www.w3.org/2000/svg">
      <path d="M 318.191 471.121 C 304.526 471.121 290.861 465.7 280.438 454.851 C 259.59 433.164 259.587 398 280.438 376.306 L 341.88 312.388 L 341.88 100.874 L 164.126 100.874 L 164.126 335.398 C 164.126 350.13 158.502 364.256 148.486 374.669 L 71.404 454.851 C 50.556 476.538 16.747 476.538 -4.105 454.851 C -24.957 433.164 -24.957 397.996 -4.105 376.306 L 57.34 312.388 L 57.34 45.334 C 57.34 14.659 81.245 -10.208 110.733 -10.208 L 395.273 -10.208 C 424.76 -10.208 448.666 14.659 448.666 45.334 L 448.666 335.398 C 448.666 350.13 443.042 364.253 433.026 374.669 L 355.947 454.851 C 345.518 465.697 331.856 471.121 318.191 471.121 Z" data-original="#9ee2f8" style="fill: rgb(63, 63, 63);" class=""/>
    </g>
  </g>
</svg>