<svg width="512.08" height="512.08" xmlns="http://www.w3.org/2000/svg" version="1.1" xml:space="preserve">
 <g>
  <title>Layer 1</title>
  <g id="svg_1">
   <g id="svg_2" xmlns="http://www.w3.org/2000/svg">
    <path d="m93.938,130.819c-3.839,0 -7.678,-1.464 -10.606,-4.394c-5.857,-5.857 -5.858,-15.354 0,-21.213l17.261,-17.262l0,-57.124l-49.937,0l0,63.338c0,3.979 -1.58,7.794 -4.394,10.606l-21.655,21.655c-5.857,5.857 -15.355,5.857 -21.213,0s-5.858,-15.355 0,-21.213l17.262,-17.262l0,-72.124c0,-8.284 6.716,-15 15,-15l79.937,0c8.284,0 15,6.716 15,15l0,78.338c0,3.979 -1.58,7.793 -4.394,10.606l-21.654,21.655c-2.93,2.929 -6.768,4.394 -10.607,4.394z" fill="#0053a0" data-original="#9ee2f8" id="svg_3"/>
    <g id="svg_4">
     <g id="svg_5">
      <path d="m243.829,118.233c-4.641,-2.68 -10.359,-2.68 -15,0l-112.136,64.742c-10.062,5.809 -16.068,16.213 -16.068,27.831c0,11.617 6.007,22.021 16.068,27.83l112.136,64.741c2.32,1.34 4.91,2.01 7.5,2.01s5.18,-0.67 7.5,-2.01c4.641,-2.68 7.5,-7.631 7.5,-12.99l0,-159.163c0,-5.36 -2.86,-10.311 -7.5,-12.991z" fill="#fdbe11" data-original="#ffb64c" id="svg_6"/>
      <path d="m326.938,28.646l-10,0c-76.34,0 -138.446,62.106 -138.446,138.445l0,117.413c0,60.299 23.637,117.144 66.557,160.064c42.921,42.92 99.766,66.557 160.064,66.557l43.478,0l-66.94,-127.91l91.204,-139.592l0,-69.061c-0.001,-80.458 -65.459,-145.916 -145.917,-145.916z" fill="#ffd45c" data-original="#fdd691" id="svg_7"/>
      <path d="m325.454,165.155c-8.284,0 -15,-6.716 -15,-15c0,-7.653 -6.226,-13.879 -13.879,-13.879s-13.879,6.226 -13.879,13.879c0,8.284 -6.716,15 -15,15s-15,-6.716 -15,-15c0,-24.195 19.684,-43.879 43.879,-43.879s43.879,19.684 43.879,43.879c0,8.284 -6.716,15 -15,15z" fill="#4a696f" data-original="#4a696f" id="svg_9"/>
      <path d="m392.838,212.188c-61.41,0 -111.371,49.961 -111.371,111.371l0,22.691c0,43.908 17.209,85.299 48.457,116.546c31.247,31.248 72.638,48.457 116.546,48.457l40.348,0c13.379,0 24.263,-10.884 24.263,-24.263l0,-156.56c-0.001,-65.198 -53.044,-118.242 -118.243,-118.242z" fill="#fdbe11" data-original="#ffb64c" id="svg_8"/>
     </g>
     <g id="svg_10">
      <g id="svg_11">
       <path d="m472.854,174.563c0,-61.323 -38.027,-113.925 -91.736,-135.481l0,173.72l10,51.117l-0.339,148.225l-9.661,85.603l0,12.105c7.92,0.836 15.925,1.273 23.995,1.273l43.478,0l15.048,-125.184l9.216,-142.317l0,-69.061l-0.001,0z" fill="#fdbe11" data-original="#ffb64c" id="svg_12"/>
      </g>
      <g id="svg_13">
       <path d="m392.838,212.188c-3.958,0 -7.867,0.211 -11.719,0.616l0,284.936c20.391,8.853 42.529,13.513 65.351,13.513l40.348,0c13.379,0 24.263,-10.884 24.263,-24.263l0,-156.56c-0.001,-65.198 -53.044,-118.242 -118.243,-118.242z" fill="#fdbe11" data-original="#ff9100" id="svg_14"/>
      </g>
     </g>
    </g>
   </g>
  </g>
 </g>

</svg>